Genre:Action | Comedy
Language:English
IMDb:http://www.imdb.com/title/tt1386588/
Source:DVD5 RUS/LAP.AUDIO.Thx

General
Complete name :The Other Guys R5 LINE H264 Feel-Free
Format : MPEG-4
Format profile : Base Media
Codec ID : isom
File size : 814 MiB
Duration : 1h 42mn
Overall bit rate : 1 106 Kbps
Video #2
Codec ID : avc1
Codec ID/Info : Advanced Video Coding
Duration : 1h 42mn
Bit rate mode : Variable
Bit rate : 938 Kbps
Width : 720 pixels
Height : 304 pixels
Display aspect ratio : 2.35:1
Frame rate mode : Constant
Frame rate : 23.976 fps
Original frame rate : 23.000 fps
Resolution : 24 bits
Colorimetry : 4:2:0
Scan type : Progressive
Bits/(Pixel*Frame) : 0.179
Stream size : 691 MiB (85%)
Audio #1
ID : 1
Format : AAC
Format/Info : Advanced Audio Codec
Format version : Version 4
Format profile : LC
Format settings, SBR : No
Codec ID : 40
Duration : 1h 42mn
Bit rate mode : Constant
Bit rate : 160 Kbps
Channel(s) : 2 channels
Channel positions : L R
Sampling rate : 48.0 KHz
Resolution : 16 bits
Stream size : 118 MiB (14%)

Plot:
Two mismatched New York City detectives seize an opportunity to step up like the city's top cops whom they idolize -- only things don't quite go as planned